# Blender v3.1.2 OBJ File: 'lowpoly_can.blend'
# www.blender.org
mtllib lowpoly_can.mtl
o Cilindro
v -0.000000 -1.673094 -0.940665
v -0.000000 1.113928 -0.940665
v 0.665151 -1.673094 -0.665151
v 0.665151 1.113928 -0.665151
v 0.940665 -1.673094 0.000000
v 0.940665 1.113928 0.000000
v 0.665151 -1.673094 0.665151
v 0.665151 1.113928 0.665151
v -0.000000 -1.673094 0.940665
v -0.000000 1.113928 0.940665
v -0.665151 -1.673094 0.665151
v -0.665151 1.113928 0.665151
v -0.940665 -1.673094 -0.000000
v -0.940665 1.113928 -0.000000
v -0.665151 -1.673094 -0.665151
v -0.665151 1.113928 -0.665151
v -0.000000 -1.909361 -0.686342
v 0.485317 -1.909361 -0.485317
v 0.686342 -1.909361 0.000000
v 0.485317 -1.909361 0.485317
v -0.000000 -1.909361 0.686342
v -0.485317 -1.909361 0.485317
v -0.686342 -1.909361 -0.000000
v -0.485317 -1.909361 -0.485317
v 0.539405 -1.791227 0.539405
v 0.762833 -1.791227 0.000000
v -0.762833 -1.791227 -0.000000
v -0.539405 -1.791227 0.539405
v -0.000000 -1.791227 0.762833
v -0.539405 -1.791227 -0.539405
v 0.539405 -1.791227 -0.539405
v -0.000000 -1.791227 -0.762833
v -0.000000 1.554960 -0.742245
v 0.524846 1.554960 -0.524846
v 0.742245 1.554960 0.000000
v 0.524846 1.554960 0.524846
v -0.000000 1.554960 0.742245
v -0.524846 1.554960 0.524846
v -0.742245 1.554960 -0.000000
v -0.524846 1.554960 -0.524846
v 0.609223 1.334444 -0.609223
v 0.861571 1.334444 0.000000
v -0.000000 1.334444 0.861571
v -0.609223 1.334444 0.609223
v -0.609223 1.334444 -0.609223
v -0.000000 1.334444 -0.861571
v 0.609223 1.334444 0.609223
v -0.861571 1.334444 -0.000000
v -0.000000 1.625840 -0.742245
v 0.524846 1.625840 -0.524846
v 0.742245 1.625840 0.000000
v 0.524846 1.625840 0.524846
v -0.000000 1.625840 0.742245
v -0.524846 1.625840 0.524846
v -0.742245 1.625840 -0.000000
v -0.524846 1.625840 -0.524846
v -0.000000 1.625840 0.000000
v -0.000000 -1.909361 0.000000
vt 0.427624 0.762689
vt 0.008955 0.870841
vt 0.008954 0.762689
vt 0.427625 0.005622
vt 0.008955 0.113774
vt 0.008955 0.005621
vt 0.427624 0.113774
vt 0.008954 0.221926
vt 0.427624 0.221926
vt 0.008954 0.330079
vt 0.427624 0.330079
vt 0.008954 0.438231
vt 0.427624 0.438231
vt 0.008954 0.546384
vt 0.791634 0.072494
vt 0.883710 0.107105
vt 0.798485 0.108957
vt 0.427624 0.546384
vt 0.008954 0.654536
vt 0.427624 0.654536
vt 0.906177 0.727326
vt 0.820881 0.733373
vt 0.817122 0.712030
vt 0.756512 0.908203
vt 0.841792 0.841150
vt 0.820738 0.946923
vt 0.964743 0.887230
vt 0.894358 0.935913
vt 0.942992 0.879013
vt 0.964711 0.795923
vt 0.895803 0.746646
vt 0.904391 0.955422
vt 0.748956 0.770884
vt 0.735400 0.754166
vt 0.944172 0.803980
vt 0.815870 0.968024
vt 0.739947 0.921604
vt 0.727364 0.834114
vt 0.674748 0.839403
vt 0.714989 0.942179
vt 0.809174 0.999838
vt 0.995972 0.899134
vt 0.995972 0.784616
vt 0.812138 0.678953
vt 0.711320 0.730723
vt 0.920010 0.984533
vt 0.922700 0.698805
vt 0.733139 0.605479
vt 0.806123 0.628909
vt 0.805019 0.639394
vt 0.621798 0.165349
vt 0.599891 0.264987
vt 0.564734 0.247977
vt 0.536768 0.444018
vt 0.604021 0.521033
vt 0.569481 0.539307
vt 0.658113 0.593071
vt 0.630742 0.622497
vt 0.718308 0.138218
vt 0.700133 0.105194
vt 0.535502 0.344086
vt 0.573367 0.349538
vt 0.649735 0.191705
vt 0.574854 0.437317
vt 0.499558 0.339221
vt 0.501326 0.450129
vt 0.595840 0.140304
vt 0.531660 0.231980
vt 0.683407 0.073979
vt 0.536824 0.556316
vt 0.603975 0.648020
vt 0.893011 0.034188
vt 0.785136 0.038249
vt 0.943579 0.429832
vt 0.823537 0.514639
vt 0.852857 0.390548
vt 0.705808 0.452783
vt 0.705198 0.532215
vt 0.694503 0.534495
vt 0.854306 0.377892
vt 0.770945 0.402475
vt 0.765365 0.392172
vt 0.882072 0.626228
vt 0.942562 0.565137
vt 0.949140 0.573505
vt 0.877706 0.617061
vt 0.740264 0.597454
vt 0.716006 0.457456
vt 0.949140 0.416642
vt 0.427625 0.870841
vt 0.889645 0.069553
vt 0.706596 0.837799
vn 0.0000 0.1647 -0.9863
vn 0.6383 -0.4302 -0.6383
vn 0.0000 -0.4302 -0.9027
vn 0.6975 0.1647 -0.6975
vn 0.9027 -0.4302 -0.0000
vn 0.9863 0.1647 0.0000
vn 0.6383 -0.4302 0.6383
vn 0.6975 0.1647 0.6975
vn -0.0000 -0.4302 0.9027
vn 0.0000 0.1647 0.9863
vn -0.6383 -0.4302 0.6383
vn -0.6975 0.1647 0.6975
vn -0.9027 -0.4302 0.0000
vn 0.9160 0.4012 -0.0000
vn 0.6826 0.2610 -0.6826
vn 0.9653 0.2610 0.0000
vn -0.9863 0.1647 -0.0000
vn -0.6383 -0.4302 -0.6383
vn -0.6975 0.1647 -0.6975
vn 0.4841 -0.7289 0.4841
vn 0.5593 -0.8290 0.0000
vn 0.6846 -0.7289 0.0000
vn 0.0000 -0.8290 -0.5593
vn 0.0000 -1.0000 -0.0000
vn -0.3955 -0.8290 -0.3955
vn -0.4841 -0.7289 0.4841
vn -0.5593 -0.8290 0.0000
vn -0.3955 -0.8290 0.3955
vn -0.0000 -0.7289 0.6846
vn 0.3955 -0.8290 0.3955
vn -0.6846 -0.7289 0.0000
vn 0.3955 -0.8290 -0.3955
vn 0.4841 -0.7289 -0.4841
vn 0.0000 -0.8290 0.5593
vn -0.4841 -0.7289 -0.4841
vn 0.0000 -0.7289 -0.6846
vn -0.9653 0.2610 0.0000
vn -0.5490 0.6303 -0.5490
vn -0.6826 0.2610 -0.6826
vn -0.0000 0.4012 0.9160
vn -0.6826 0.2610 0.6826
vn -0.6477 0.4012 0.6477
vn -0.6477 0.4012 -0.6477
vn 0.0000 0.2610 -0.9653
vn 0.0000 0.4012 -0.9160
vn 0.6477 0.4012 -0.6477
vn 0.6826 0.2610 0.6826
vn 0.6477 0.4012 0.6477
vn -0.9160 0.4012 0.0000
vn -0.0000 0.2610 0.9653
vn 0.5490 0.6303 -0.5490
vn 0.0000 1.0000 -0.0000
vn 0.7764 0.6303 0.0000
vn -0.5490 0.6303 0.5490
vn 0.5490 0.6303 0.5490
vn 0.0000 0.6303 -0.7764
vn -0.7764 0.6303 -0.0000
vn -0.0000 0.6303 0.7764
usemtl Metal
s 1
f 2/1/1 3/2/2 1/3/3
f 4/4/4 5/5/5 3/6/2
f 6/7/6 7/8/7 5/5/5
f 8/9/8 9/10/9 7/8/7
f 10/11/10 11/12/11 9/10/9
f 12/13/12 13/14/13 11/12/11
f 42/15/14 34/16/15 35/17/16
f 14/18/17 15/19/18 13/14/13
f 16/20/19 1/3/3 15/19/18
f 25/21/20 19/22/21 26/23/22
f 17/24/23 58/25/24 24/26/25
f 28/27/26 23/28/27 22/29/28
f 29/30/29 20/31/30 25/21/20
f 27/32/31 24/26/25 23/28/27
f 26/23/22 18/33/32 31/34/33
f 28/27/26 21/35/34 29/30/29
f 30/36/35 17/24/23 24/26/25
f 32/37/36 18/38/32 17/24/23
f 3/39/2 32/37/36 1/40/3
f 1/40/3 30/36/35 15/41/18
f 11/42/11 29/30/29 9/43/9
f 5/44/5 31/34/33 3/45/2
f 15/41/18 27/32/31 13/46/13
f 9/43/9 25/21/20 7/47/7
f 13/46/13 28/27/26 11/42/11
f 7/47/7 26/23/22 5/44/5
f 39/48/37 56/49/38 40/50/39
f 43/51/40 38/52/41 44/53/42
f 45/54/43 33/55/44 46/56/45
f 46/56/45 34/57/15 41/58/46
f 42/15/14 36/59/47 47/60/48
f 48/61/49 38/52/41 39/62/37
f 47/60/48 37/63/50 43/51/40
f 48/61/49 40/64/39 45/54/43
f 14/65/17 45/54/43 16/66/19
f 10/67/10 47/60/48 43/51/40
f 12/68/12 48/61/49 14/65/17
f 8/69/8 42/15/14 47/60/48
f 2/70/1 41/58/46 4/71/4
f 2/70/1 45/54/43 46/56/45
f 12/68/12 43/51/40 44/53/42
f 4/72/4 42/15/14 6/73/6
f 50/74/51 57/75/52 51/76/53
f 37/77/50 54/78/54 38/79/41
f 35/80/16 52/81/55 36/82/47
f 33/83/44 50/84/51 34/85/15
f 40/50/39 49/86/56 33/83/44
f 38/79/41 55/87/57 39/48/37
f 36/82/47 53/88/58 37/77/50
f 34/89/15 51/76/53 35/80/16
f 54/78/54 57/75/52 55/87/57
f 56/49/38 57/75/52 49/86/56
f 52/81/55 57/75/52 53/88/58
f 53/88/58 57/75/52 54/78/54
f 49/86/56 57/75/52 50/84/51
f 55/87/57 57/75/52 56/49/38
f 51/76/53 57/75/52 52/81/55
f 23/28/27 58/25/24 22/29/28
f 58/25/24 17/24/23 18/38/32
f 21/35/34 58/25/24 20/31/30
f 20/31/30 58/25/24 19/22/21
f 24/26/25 58/25/24 23/28/27
f 22/29/28 58/25/24 21/35/34
f 18/33/32 19/22/21 58/25/24
f 2/1/1 4/90/4 3/2/2
f 4/4/4 6/7/6 5/5/5
f 6/7/6 8/9/8 7/8/7
f 8/9/8 10/11/10 9/10/9
f 10/11/10 12/13/12 11/12/11
f 12/13/12 14/18/17 13/14/13
f 42/15/14 41/91/46 34/16/15
f 14/18/17 16/20/19 15/19/18
f 16/20/19 2/1/1 1/3/3
f 25/21/20 20/31/30 19/22/21
f 28/27/26 27/32/31 23/28/27
f 29/30/29 21/35/34 20/31/30
f 27/32/31 30/36/35 24/26/25
f 26/23/22 19/22/21 18/33/32
f 28/27/26 22/29/28 21/35/34
f 30/36/35 32/37/36 17/24/23
f 32/37/36 31/92/33 18/38/32
f 3/39/2 31/92/33 32/37/36
f 1/40/3 32/37/36 30/36/35
f 11/42/11 28/27/26 29/30/29
f 5/44/5 26/23/22 31/34/33
f 15/41/18 30/36/35 27/32/31
f 9/43/9 29/30/29 25/21/20
f 13/46/13 27/32/31 28/27/26
f 7/47/7 25/21/20 26/23/22
f 39/48/37 55/87/57 56/49/38
f 43/51/40 37/63/50 38/52/41
f 45/54/43 40/64/39 33/55/44
f 46/56/45 33/55/44 34/57/15
f 42/15/14 35/17/16 36/59/47
f 48/61/49 44/53/42 38/52/41
f 47/60/48 36/59/47 37/63/50
f 48/61/49 39/62/37 40/64/39
f 14/65/17 48/61/49 45/54/43
f 10/67/10 8/69/8 47/60/48
f 12/68/12 44/53/42 48/61/49
f 8/69/8 6/73/6 42/15/14
f 2/70/1 46/56/45 41/58/46
f 2/70/1 16/66/19 45/54/43
f 12/68/12 10/67/10 43/51/40
f 4/72/4 41/91/46 42/15/14
f 37/77/50 53/88/58 54/78/54
f 35/80/16 51/76/53 52/81/55
f 33/83/44 49/86/56 50/84/51
f 40/50/39 56/49/38 49/86/56
f 38/79/41 54/78/54 55/87/57
f 36/82/47 52/81/55 53/88/58
f 34/89/15 50/74/51 51/76/53
